<svg xmlns="http://www.w3.org/2000/svg" data-name="Layer 7" viewBox="0 0 64 64"><path d="M38.49,32.3a4.5,4.5,0,0,0-4.313,3.259H29.513a4.5,4.5,0,1,0,.123,2h4.417A4.507,4.507,0,1,0,38.49,32.3ZM25.2,39.32a2.513,2.513,0,1,1,2.513-2.512A2.515,2.515,0,0,1,25.2,39.32Zm13.291,0A2.513,2.513,0,1,1,41,36.808,2.515,2.515,0,0,1,38.49,39.32Z"/><path d="M32.886,32.607a1,1,0,0,0,0-2H30.8a1,1,0,1,0,0,2Z"/><path d="M49.109,15.192H44.742a4.369,4.369,0,0,0-3.066,1.27l-.458.458a2.351,2.351,0,0,1-1.674.693H38.49a1,1,0,0,0-1,1v4.84a.514.514,0,0,1-.513.513H26.056a.514.514,0,0,1-.513-.513v-3.84h5.109a1,1,0,0,0,0-2h-6.2a2.351,2.351,0,0,1-1.674-.693l-.458-.458a4.369,4.369,0,0,0-3.066-1.27H14.891a5.375,5.375,0,0,0-4.847,3.1c-1.8,3.849-4.5,12.213-2.388,24.985a7.568,7.568,0,0,0,1.875,3.88,5.2,5.2,0,0,0,3.836,1.654,5.523,5.523,0,0,0,2.9-.829,11.1,11.1,0,0,0,5.006-6.17,1,1,0,0,0-1.921-.559,9.138,9.138,0,0,1-4.137,5.027A3.347,3.347,0,0,1,11,45.8,5.57,5.57,0,0,1,9.63,42.948c-2.021-12.241.527-20.174,2.226-23.813a3.369,3.369,0,0,1,3.035-1.943h4.367a2.352,2.352,0,0,1,1.652.684l.457.458a4.332,4.332,0,0,0,2.176,1.179v3.94a2.516,2.516,0,0,0,2.513,2.513H36.977a2.515,2.515,0,0,0,2.513-2.513v-3.84h.054a4.335,4.335,0,0,0,3.088-1.279l.458-.458a2.352,2.352,0,0,1,1.652-.684h4.367a3.367,3.367,0,0,1,3.034,1.943c1.7,3.639,4.248,11.572,2.227,23.813A5.562,5.562,0,0,1,53,45.8a3.342,3.342,0,0,1-4.218.48,9.138,9.138,0,0,1-4.137-5.027,1,1,0,0,0-1.921.559,11.1,11.1,0,0,0,5.006,6.17,5.515,5.515,0,0,0,2.9.828,5.2,5.2,0,0,0,3.842-1.658,7.559,7.559,0,0,0,1.871-3.875c2.108-12.772-.591-21.136-2.389-24.985A5.373,5.373,0,0,0,49.109,15.192Z"/><path d="M33.7 18.021a1.217 1.217 0 0 0-.22.331.99.99 0 0 0 .54 1.3 1.05 1.05 0 0 0 .39.08.984.984 0 0 0 .7-.29 1 1 0 0 0 .3-.71 1.024 1.024 0 0 0-.3-.71A1.036 1.036 0 0 0 33.7 18.021zM46.924 24.882a.852.852 0 0 0 .38.08 1.029 1.029 0 0 0 .71-.29 1.169 1.169 0 0 0 .21-.33 1 1 0 0 0 .08-.38 1.048 1.048 0 0 0-.29-.71.955.955 0 0 0-.16-.12.556.556 0 0 0-.17-.09.6.6 0 0 0-.19-.061 1.058 1.058 0 0 0-.9.271 1.008 1.008 0 0 0-.29.71.986.986 0 0 0 .07.38 1.2 1.2 0 0 0 .22.33A1.032 1.032 0 0 0 46.924 24.882zM46.594 30.741a.944.944 0 0 0 .33.221.985.985 0 0 0 .38.069 1 1 0 0 0 .71-.29 1.029 1.029 0 0 0 .29-.71 1 1 0 0 0-1.38-.92.836.836 0 0 0-.33.221.969.969 0 0 0-.29.7A.991.991 0 0 0 46.594 30.741zM44.264 28a1.051 1.051 0 0 0 .391-.08.862.862 0 0 0 .319-.221 1 1 0 0 0 0-1.409.717.717 0 0 0-.15-.12 1.117 1.117 0 0 0-.18-.1 1.343 1.343 0 0 0-.18-.05.856.856 0 0 0-.39 0 1.108 1.108 0 0 0-.189.05.987.987 0 0 0-.171.1.429.429 0 0 0-.15.12 1.006 1.006 0 0 0 .7 1.71zM50.334 28a1.027 1.027 0 0 0 1.01-1 1.355 1.355 0 0 0-.02-.2c-.02-.061-.04-.12-.06-.191s-.06-.109-.09-.17a1.708 1.708 0 0 0-.13-.149 1.018 1.018 0 0 0-.32-.221 1.053 1.053 0 0 0-.58-.05 1.48 1.48 0 0 0-.19.05 1.017 1.017 0 0 0-.17.1.408.408 0 0 0-.149.12.983.983 0 0 0-.291.71 1 1 0 0 0 .07.38.862.862 0 0 0 .221.319A.987.987 0 0 0 50.334 28zM16.122 31.324a1 1 0 0 0 1-1v-2h2a1 1 0 0 0 0-2h-2v-2a1 1 0 1 0-2 0v2h-2a1 1 0 1 0 0 2h2v2A1 1 0 0 0 16.122 31.324z"/></svg>