<?xml version="1.0" standalone="no"?>
<!DOCTYPE svg PUBLIC "-//W3C//DTD SVG 20010904//EN"
 "http://www.w3.org/TR/2001/REC-SVG-20010904/DTD/svg10.dtd">
<svg version="1.0" xmlns="http://www.w3.org/2000/svg"
 width="1395.000000pt" height="1061.000000pt" viewBox="0 0 1395.000000 1061.000000"
 preserveAspectRatio="xMidYMid meet">

<g transform="translate(0.000000,1061.000000) scale(0.100000,-0.100000)"
fill="#000000" stroke="none">
<path d="M4660 9756 c0 -1 252 -178 560 -392 l559 -389 1 -257 0 -256 53 -30
c131 -74 220 -173 317 -355 l55 -102 120 -59 c151 -74 232 -150 288 -266 55
-116 70 -187 71 -332 l1 -127 50 -6 c28 -4 131 -2 230 4 313 19 541 25 530 13
-5 -5 -68 -58 -140 -116 -283 -232 -423 -307 -676 -362 -65 -15 -126 -19 -269
-19 -173 0 -190 2 -257 26 l-72 25 68 -72 c116 -122 180 -256 203 -424 14
-105 -4 -97 173 -76 66 8 192 22 280 30 88 9 179 18 203 22 l42 5 0 105 0 104
489 0 490 0 189 223 c104 122 189 223 188 224 -1 1 -75 -25 -165 -58 -90 -33
-165 -58 -167 -57 -1 2 89 113 202 248 112 134 204 249 204 255 0 6 -38 52
-85 103 -127 140 -171 227 -201 402 -20 118 -14 228 21 365 14 55 25 113 25
130 0 58 31 158 80 263 27 59 52 127 56 152 24 159 139 213 322 151 l52 -18 0
38 c0 35 -25 67 -361 463 l-360 426 -1685 0 c-926 0 -1684 -2 -1684 -4z m2615
-921 c68 -25 165 -82 165 -96 0 -5 -11 -26 -24 -47 -77 -122 -147 -311 -177
-481 -20 -109 -25 -369 -10 -461 8 -50 6 -55 37 80 37 162 102 316 180 426 41
58 147 164 164 164 4 0 10 -10 13 -22 3 -13 30 -134 60 -270 31 -135 62 -268
70 -295 21 -70 67 -157 126 -238 l51 -70 -317 -3 c-175 -1 -348 2 -385 7 -90
12 -168 49 -204 97 l-29 37 -3 583 -2 583 22 12 c62 34 165 31 263 -6z"/>
<path d="M8489 8782 c-23 -21 -34 -43 -45 -92 -8 -36 -36 -109 -61 -163 -51
-110 -73 -183 -73 -243 0 -23 -6 -60 -14 -82 -31 -87 -49 -222 -43 -321 13
-221 93 -377 261 -510 36 -29 66 -58 66 -65 0 -20 -89 -140 -193 -261 -53 -60
-94 -111 -93 -113 6 -5 306 112 367 144 78 41 190 140 254 227 136 180 197
428 147 590 -17 53 -17 64 -5 110 16 60 11 148 -12 203 -13 31 -13 46 -3 95
10 51 9 66 -6 115 -21 68 -83 139 -150 172 -33 17 -51 35 -68 68 -47 94 -146
154 -255 154 -33 0 -50 -7 -74 -28z m416 -764 c45 -35 67 -100 72 -213 7 -123
-9 -194 -71 -320 -33 -66 -65 -112 -122 -173 -65 -70 -178 -162 -199 -162 -3
0 12 24 34 53 78 104 131 231 161 386 19 96 28 112 61 104 14 -4 19 0 19 13 0
31 -31 165 -53 227 -16 46 -18 63 -9 82 15 33 68 34 107 3z"/>
<path d="M5083 8465 c-93 -29 -179 -99 -209 -171 -17 -40 -18 -123 -3 -174 6
-20 42 -79 80 -131 91 -125 130 -193 179 -319 23 -58 48 -118 56 -134 8 -16
13 -31 11 -33 -2 -1 -30 2 -63 8 -112 21 -249 -9 -315 -68 -80 -72 -118 -196
-99 -318 15 -92 34 -146 92 -255 54 -100 88 -208 87 -275 0 -38 -3 -42 -52
-70 -35 -20 -61 -46 -82 -79 -28 -46 -30 -57 -30 -140 0 -87 2 -94 40 -166 23
-43 69 -106 108 -147 62 -65 72 -82 101 -167 52 -150 119 -235 210 -266 26 -9
38 -25 70 -92 100 -212 300 -307 508 -242 43 14 108 70 119 102 2 7 30 19 63
27 102 27 224 100 444 265 117 88 209 160 205 160 -8 0 -476 -102 -525 -115
-27 -7 -28 -6 -28 34 l0 41 58 0 c64 0 149 19 223 51 70 31 547 359 521 359
-23 0 -433 -45 -513 -56 l-46 -6 -5 108 c-6 126 -34 223 -94 324 -51 88 -155
189 -235 230 l-66 34 -2 50 c-1 28 -4 59 -7 69 -5 15 -1 17 23 11 35 -8 75
-27 130 -60 23 -13 75 -37 115 -52 70 -26 81 -27 268 -27 181 0 203 2 305 28
184 47 356 143 556 310 l34 29 -60 -6 c-33 -4 -191 -9 -352 -13 l-291 -6 5
134 c7 161 -9 255 -62 365 -53 109 -115 166 -271 244 l-129 65 -57 108 c-70
133 -111 189 -187 259 -65 60 -142 109 -228 144 -47 19 -76 23 -148 23 -49 0
-117 5 -150 10 -82 15 -251 13 -302 -4z m1032 -1351 c17 -4 38 0 59 11 33 18
33 18 62 -9 36 -35 129 -80 209 -101 76 -21 314 -30 420 -17 44 6 81 9 83 7 7
-6 -165 -68 -258 -92 -118 -31 -346 -43 -442 -23 -79 17 -156 69 -250 169 -83
88 -129 170 -136 242 l-5 49 116 -115 c65 -64 127 -117 142 -121z m-485 -820
c55 -147 142 -244 205 -228 56 14 83 7 162 -40 43 -25 96 -51 118 -57 41 -12
232 -7 270 6 19 6 18 5 -2 -13 -12 -10 -61 -32 -110 -48 -75 -25 -104 -29
-198 -29 -105 0 -114 2 -180 34 -91 45 -256 207 -299 294 -33 67 -44 143 -26
178 15 27 9 37 60 -97z m-39 -694 c6 0 13 9 16 20 8 29 34 25 87 -16 81 -62
130 -78 231 -79 50 0 103 4 118 8 45 12 23 -10 -42 -42 -130 -66 -268 -79
-357 -33 -56 29 -126 102 -162 170 -56 107 -52 113 27 40 39 -38 76 -68 82
-68z m-212 1 c44 -68 150 -163 250 -225 l84 -51 -54 -3 c-162 -9 -279 101
-313 296 -3 17 -4 32 -2 32 1 0 17 -22 35 -49z"/>
<path d="M6798 6018 c-136 -95 -246 -173 -244 -175 1 -1 81 15 177 36 155 34
192 40 178 27 -2 -2 -74 -53 -159 -113 -85 -60 -240 -173 -345 -252 -194 -145
-349 -235 -426 -247 -21 -4 -39 -10 -39 -14 0 -16 -81 -87 -119 -105 -38 -17
-41 -21 -41 -59 0 -40 -12 -54 -361 -446 l-361 -405 652 -3 c358 -1 941 -1
1295 0 l643 3 -299 405 -299 404 -2 558 -3 559 -247 -173z"/>
</g>
</svg>
