<svg xmlns="http://www.w3.org/2000/svg" viewBox="0 0 34.64 27.63"><g data-name="Layer 2"><g data-name="Layer 1"><path d="M16.82,0h.62A1.36,1.36,0,0,1,18.8,1.36V4.7a0,0,0,0,1,0,0H15.46a0,0,0,0,1,0,0V1.36A1.36,1.36,0,0,1,16.82,0Z"/><path d="M25.13,3h.62a1.36,1.36,0,0,1,1.36,1.36V6.54a0,0,0,0,1,0,0H23.77a0,0,0,0,1,0,0V4.33A1.36,1.36,0,0,1,25.13,3Z" transform="rotate(26.79 25.447 4.745)"/><path d="M8.87,3h.62a1.36,1.36,0,0,1,1.36,1.36V6.54a0,0,0,0,1,0,0H7.51a0,0,0,0,1,0,0V4.33A1.36,1.36,0,0,1,8.87,3Z" transform="rotate(-23.92 9.179 4.756)"/><path d="M17.32,27.63C11,27.63,5,24.33.53,18.34a2.69,2.69,0,0,1,0-3.21C5,9.14,11,5.84,17.32,5.84s12.28,3.3,16.79,9.29h0a2.67,2.67,0,0,1,0,3.2C29.59,24.34,23.63,27.63,17.32,27.63ZM2.88,16.73c4,5.2,9.07,8.06,14.44,8.06s10.49-2.86,14.44-8c-4-5.2-9.08-8.06-14.44-8.06S6.83,11.54,2.88,16.73Z"/><path d="M17.32,13.63a3.11,3.11,0,1,1-3.11,3.11,3.11,3.11,0,0,1,3.11-3.11m0-2a5.11,5.11,0,1,0,5.11,5.11,5.11,5.11,0,0,0-5.11-5.11Z"/></g></g></svg>