<svg xmlns="http://www.w3.org/2000/svg" enable-background="new 0 0 32 32" viewBox="0 0 32 32"><path d="M16,14c3.3,0,6-2.7,6-6s-2.7-6-6-6s-6,2.7-6,6C10,11.3,12.7,14,16,14z M16,4c2.2,0,4,1.8,4,4s-1.8,4-4,4s-4-1.8-4-4
	C12,5.8,13.8,4,16,4z"/><path d="M24.7,18c-6-4.8-14.8-3.8-19.7,2.2c-2,2.5-3,5.6-3,8.7c0,0.6,0.4,1,1,1h21c3.3,0,6-2.7,6-6C30,21,27.7,18.4,24.7,18z M16,17
	c2,0,4,0.5,5.7,1.5c-3.1,1.3-4.5,4.8-3.3,7.8c0.3,0.6,0.6,1.2,1.1,1.7H4C4.6,21.8,9.8,17,16,17z M24,28c-2.2,0-4-1.8-4-4s1.8-4,4-4
	s4,1.8,4,4C28,26.2,26.2,28,24,28z"/><path d="M26,23h-1v-1c0-0.6-0.4-1-1-1s-1,0.4-1,1v1h-1c-0.6,0-1,0.4-1,1s0.4,1,1,1h1v1c0,0.6,0.4,1,1,1s1-0.4,1-1v-1h1
	c0.6,0,1-0.4,1-1S26.6,23,26,23z"/></svg>