<svg xmlns="http://www.w3.org/2000/svg" viewBox="0 0 33.86 29.47"><g data-name="Layer 2"><g data-name="Layer 1"><path d="M16.93,5.46A15,15,0,0,1,30.5,13.93a14.78,14.78,0,0,1-3.71,4.8L29,20.9a18.11,18.11,0,0,0,4.9-7A18.24,18.24,0,0,0,11.33,3.26L13.87,5.8A15.5,15.5,0,0,1,16.93,5.46Z"/><path d="M15.28 7.22l3.19 3.18 2 2 3.18 3.19A6.84 6.84 0 0016.93 7 6.5 6.5 0 0015.28 7.22zM1.55 2.19L5.68 6.31A18 18 0 000 13.93 18.19 18.19 0 0023.58 24.21l5.26 5.26L31 27.3 3.72 0zM7.86 8.5l2.7 2.69 0 0A6.62 6.62 0 0010 13.89a6.88 6.88 0 009.57 6.35l.06.06 1.51 1.51a16 16 0 01-4.23.58A15.06 15.06 0 013.35 13.93 15.24 15.24 0 017.86 8.5z"/></g></g></svg>