<svg xmlns="http://www.w3.org/2000/svg" enable-background="new 0 0 64 64" viewBox="0 0 64 64"><path fill="#333" d="M43,48h-5c-1.7,0-3-1.3-3-3v-4c0-0.8-0.4-1.7-1-2.2c-0.6-0.6-1.5-0.8-2.3-0.8c-1.5,0.1-2.7,1.5-2.7,3.2V45c0,1.7-1.3,3-3,3h-5c-1.6,0-3-1.3-3-2.9L16,30c0-0.9,0.4-1.8,1.1-2.3l13-10.4c1.1-0.9,2.6-0.9,3.7,0l13,10.4C47.6,28.2,48,29,48,30l0,0.1l-2,15C46,46.7,44.6,48,43,48z M32,36c1.2,0,2.5,0.5,3.4,1.3c1,0.9,1.6,2.3,1.6,3.7v4c0,0.6,0.4,1,1,1h5c0.6,0,1-0.4,1-1l0-0.1l2-15c0-0.3-0.1-0.5-0.4-0.7l-13-10.4c-0.4-0.3-0.9-0.3-1.2,0l0,0l-13,10.4c-0.2,0.2-0.4,0.4-0.4,0.7L20,45c0,0.6,0.4,1,1,1h5c0.6,0,1-0.4,1-1v-3.8c0-2.6,2-4.9,4.5-5.1C31.7,36,31.8,36,32,36z"/></svg>