<?xml version="1.0" standalone="yes"?>
<svg xmlns="http://www.w3.org/2000/svg" width="1395" height="1061">
<path style="fill:#ffffff; stroke:none;" d="M0 0L0 1061L1395 1061L1395 0L0 0z"/>
<path style="fill:#060504; stroke:none;" d="M466 85L466 86C492.217 103.686 518.239 121.796 544 140.141C553.633 147.001 569.255 153.898 576.397 163.326C579.074 166.86 578 172.832 578 177C578 186.814 574.503 204.711 578.603 213.621C580.842 218.486 591.263 223.892 596 226L596 177L595.397 155.3L576 140.33L523 104L523 103L712 103L768 103C775.341 103 786.077 101.022 792.996 103.603C802.878 107.291 812.217 124.134 819 132C829.295 143.94 839.922 162.671 853.039 171.397C858.716 175.174 868.454 175.329 875 178C874.962 166.915 866.753 160.009 859.87 152C846.48 136.419 833.419 120.557 820 105C815.151 99.379 808.476 87.243 800.985 85.3179C790.884 82.7217 777.431 85 767 85L696 85L466 85z"/>
<path style="fill:#a1a1a5; stroke:none;" d="M803 85L804 86L803 85M804 86L805 87L804 86M468 87L469 88L468 87M469 88L470 89L469 88M471 89L472 90L471 89M806 89L807 90L806 89M472 90L473 91L472 90M807 90L808 91L807 90M474 91L475 92L474 91M808 91L809 92L808 91M475 92L476 93L475 92M809 92L810 93L809 92M477 93L478 94L477 93M478 94L479 95L478 94M479 95L480 96L479 95M481 96L482 97L481 96M812 96L813 97L812 96M482 97L483 98L482 97M813 97L814 98L813 97M484 98L485 99L484 98M814 98L815 99L814 98M485 99L486 100L485 99M815 99L816 100L815 99M487 100L488 101L487 100M488 101L489 102L488 101M817 102L818 103L817 102M491 103L492 104L491 103z"/>
<path style="fill:#d61a21; stroke:none;" d="M523 103L523 104C539.53 115.839 556.26 127.436 573 138.974C579.382 143.374 591.005 148.508 594.972 155.3C597.795 160.133 596 169.548 596 175C596 190.761 593.733 208.437 596.148 224C596.998 229.475 602.345 233.724 605.522 238C610.659 244.915 613.873 252.72 618.352 259.985C624.013 269.168 637.746 271.024 646 277.518C664.625 292.17 672.244 319.141 668 342L750 340C710.807 374.133 661.642 405.693 608 385C621.88 404.704 635.466 418.143 636 444L687 439L687 398L764 398C772.454 398 787.384 400.868 794.985 396.972C806.037 391.308 815.794 372.515 823.754 363C829.488 356.146 846.616 342.116 847.172 333C847.466 328.176 841.001 323.104 838.011 320C831.568 313.311 826.541 305.731 823.32 297C812.013 266.349 821.912 229.568 834.688 201C840.225 188.617 838.999 178.118 854 173L813.92 125L794.961 104.028L772 103L718 103L523 103z"/>
<path style="fill:#a1a1a5; stroke:none;" d="M818 103L819 104L818 103M492 104L493 105L492 104M819 104L820 105L819 104M494 105L495 106L494 105M820 105L821 106L820 105M495 106L496 107L495 106M497 107L498 108L497 107M498 108L499 109L498 108M823 109L824 110L823 109M501 110L502 111L501 110M824 110L825 111L824 110M825 111L826 112L825 111M504 112L505 113L504 112M826 112L827 113L826 112M505 113L506 114L505 113M507 114L508 115L507 114M508 115L509 116L508 115M510 116L511 117L510 116M829 116L830 117L829 116M511 117L512 118L511 117M830 117L831 118L830 117M831 118L832 119L831 118M514 119L515 120L514 119M517 121L518 122L517 121M518 122L519 123L518 122M834 122L835 123L834 122M520 123L521 124L520 123M835 123L836 124L835 123M521 124L522 125L521 124M836 124L837 125L836 124M837 125L838 126L837 125M524 126L525 127L524 126M525 127L526 128L525 127M527 128L528 129L527 128M528 129L529 130L528 129M840 129L841 130L840 129M530 130L531 131L530 130M841 130L842 131L841 130M531 131L532 132L531 131M842 131L843 132L842 131M533 132L534 133L533 132M534 133L535 134L534 133M537 135L538 136L537 135z"/>
<path style="fill:#060504; stroke:none;" d="M681 135L681 264C681 282.193 676.943 302.47 692.004 315.815C703.405 325.916 719.5 327 734 327C754.603 327 775.419 326.13 796 327.039C808.422 327.588 820.581 332.018 833 333C817.436 310.906 799.881 293.725 791.508 267C782.751 239.053 783.224 204.469 763.674 181C753.345 168.6 738.043 159.799 722 157.296C715.176 156.232 705.414 157.954 699.171 155.397C691.533 152.268 687.113 140.425 681 135z"/>
<path style="fill:#a1a1a5; stroke:none;" d="M845 135L846 136L845 135M538 136L539 137L538 136M846 136L847 137L846 136M540 137L541 138L540 137M847 137L848 138L847 137M541 138L542 139L541 138M848 138L849 139L848 138M543 139L544 140L543 139M544 140L545 141L544 140M545 141L546 142L545 141M547 142L548 143L547 142M851 142L852 143L851 142M548 143L549 144L548 143M852 143L853 144L852 143M550 144L551 145L550 144M853 144L854 145L853 144M551 145L552 146L551 145M553 146L554 147L553 146M554 147L555 148L554 147M856 148L857 149L856 148M557 149L558 150L557 149M857 149L858 150L857 149M858 150L859 151L858 150M560 151L561 152L560 151M859 151L860 152L859 151M561 152L562 153L561 152M563 153L564 154L563 153M564 154L565 155L564 154M566 155L567 156L566 155M862 155L863 156L862 155M567 156L568 157L567 156M863 156L864 157L863 156M864 157L865 158L864 157M570 158L571 159L570 158M865 158L866 159L865 158M571 159L572 160L571 159M573 160L574 161L573 160M574 161L575 162L574 161M867 161L868 162L867 161M576 162L577 163L576 162M868 162L869 163L868 162M577 163L578 164L577 163M869 163L870 164L869 163M870 164L871 165L870 164M873 168L874 169L873 168M874 169L875 170L874 169M852 173L852 174L858 174L852 173M859.667 173.333L860.333 173.667L859.667 173.333M708 174L708 175L718 175L708 174M849 174L850 175L849 174M863 174L863 175L866 175L863 174M704.667 175.333L705.333 175.667L704.667 175.333z"/>
<path style="fill:#fdd305; stroke:none;" d="M792 309L776.811 282L762 220C754.618 221.755 749.73 228.142 745.378 234C734.313 248.894 725.155 271.242 725 290L723 290C722.018 267.119 720.753 246.435 727.438 224C731.433 210.593 739.855 199.098 744 186C734.454 180.706 711.233 166.909 700.603 177.728C697.111 181.282 699 191.378 699 196L699 245C699 259.435 693.517 288.261 703.533 299.815C709.502 306.7 718.632 307.257 727 308.285C748.214 310.89 770.623 309 792 309z"/>
<path style="fill:#a1a1a5; stroke:none;" d="M720 175L720 176L723 176L720 175M847 175L848 176L847 175M867 175L867 176L870 176L867 175M701 176L702 177L701 176M725 176L726 177L725 176M845 176L846 177L845 176M871 176L872 177L871 176M699 177L700 178L699 177M727.667 177.333L728.333 177.667L727.667 177.333M844 177L845 178L844 177M873 177L874 178L873 177M730 178L731 179L730 178M843 178L844 179L843 178M698 179L699 180L698 179M732 179L733 180L732 179M842 179L843 180L842 179M856 179L857 180L856 179M734 180L735 181L734 180M841 180L842 181L841 180M851.667 180.333L852.333 180.667L851.667 180.333z"/>
<path style="fill:#060504; stroke:none;" d="M829 368C843.19 364.127 859.886 358.377 872 349.961C891.684 336.285 906.212 313.23 907.911 289C908.501 280.572 904.805 273.073 904.978 265C905.08 260.252 907.178 255.821 906.815 251C906.408 245.605 903.499 240.337 903.509 235C903.517 230.852 905.246 227.241 904.532 223C902.406 210.379 893.538 207.334 885.213 199.61C876.523 191.549 865.757 171.886 850.044 181.858C843.077 186.28 842.953 198.877 839.691 206C827.003 233.711 818.523 271.962 831.901 301C835.263 308.297 840.921 315.366 847.004 320.561C849.816 322.963 856.364 326.202 857.003 330.174C857.648 334.178 852.812 339.156 850.55 342C843.568 350.78 835.406 358.797 829 368z"/>
<path style="fill:#a1a1a5; stroke:none;" d="M861 180L861 181L864 181L861 180M736 181L737 182L736 181M849 181L850 182L849 181M865 181L865 182L868 182L865 181z"/>
<path style="fill:#fdd305; stroke:none;" d="M840 182L841 183L840 182z"/>
<path style="fill:#a1a1a5; stroke:none;" d="M848 182L849 183L848 182M869 182L870 183L869 182M739 183L740 184L739 183M847 183L848 184L847 183M871 183L872 184L871 183M741 184L742 185L741 184M846 184L847 185L846 184M872 184L873 185L872 184M742 185L743 186L742 185M874 185L875 186L874 185M838.333 186.667L838.667 187.333L838.333 186.667M845 186L846 187L845 186M875 186L876 187L875 186M876 187L877 188L876 187M743 188L744 189L743 188M877 188L878 189L877 188M844.333 189.667L844.667 190.333L844.333 189.667z"/>
<path style="fill:#d61a21; stroke:none;" d="M855 189L841 233L859 221C858.253 230.911 846.377 235.087 842.352 244C830.601 270.021 836.969 307.509 865 320C865 302.34 863.964 282.277 867.888 265C869.333 258.637 872.942 249.365 881 249.723C886.783 249.98 891.566 255.914 896 259C898.134 250.037 894.206 244.456 893.424 236C892.777 228.995 897.061 223.777 892.347 217.004C888.4 211.332 881.879 210.383 877.394 205.725C869.263 197.282 868.83 189.287 855 189z"/>
<path style="fill:#a1a1a5; stroke:none;" d="M878 189L879 190L878 189z"/>
<path style="fill:#d61a21; stroke:none;" d="M742 190L743 191L742 190z"/>
<path style="fill:#a1a1a5; stroke:none;" d="M741 191L742 192L741 191M879 191L880 192L879 191M837 192L838 193L837 192M880 192L881 193L880 192M740 193L741 194L740 193z"/>
<path style="fill:#fdd305; stroke:none;" d="M837 193L838 194L837 193z"/>
<path style="fill:#a1a1a5; stroke:none;" d="M843 194L843 197L844 197L843 194M881 194L882 195L881 194M739 195L740 196L739 195M836 196L837 197L836 196M882 196L883 197L882 196M738 197L739 198L738 197M842.333 198.667L842.667 199.333L842.333 198.667M883 198L884 199L883 198M835 199L836 200L835 199M885 200L886 201L885 200M834 201L835 202L834 201M841 201L842 202L841 201M887 201L888 202L887 201M889 202L890 203L889 202M735 203L736 204L735 203M833 203L834 204L833 203M840.333 203.667L840.667 204.333L840.333 203.667M891 203L892 204L891 203M892 204L893 205L892 204M734 205L735 206L734 205M832 205L833 206L832 205M839 206L840 207L839 206M895 206L896 207L895 206M733 207L734 208L733 207M831 207L832 208L831 207M896 207L897 208L896 207M838 208L839 209L838 208M897 208L898 209L897 208M732 209L733 210L732 209M830 209L831 210L830 209M898 209L899 210L898 209M837 210L838 211L837 210M829 211L830 212L829 211M517 212L517 213L530 213L517 212M731 212L732 213L731 212z"/>
<path style="fill:#fdd305; stroke:none;" d="M829 212L830 213L829 212z"/>
<path style="fill:#a1a1a5; stroke:none;" d="M836 212L837 213L836 212M900 212L901 213L900 212M511.667 213.333L512.333 213.667L511.667 213.333z"/>
<path style="fill:#060504; stroke:none;" d="M520 311C513.339 309.763 506.725 309.04 500 309.845C495.068 310.435 490.441 311.484 486 313.825C463.428 325.719 471.823 357.489 481.309 375C485.538 382.806 491.276 392.558 489.848 401.957C489.065 407.111 482.722 408.769 479.529 412.301C474.296 418.09 472.358 426.382 473.174 434C474.959 450.673 488.566 457.632 495.722 471C500.131 479.237 500.871 488.382 507.04 495.91C511.375 501.2 519.276 502.82 522.926 508.133C531.71 520.924 535.885 532.775 552 538.452C561.153 541.677 574.981 541.227 582.985 535.362C586.412 532.85 588.287 528.401 592.104 526.51C615.216 515.057 642.894 503.711 660 483L604 495L605 487C636.383 487 661.583 464.488 686 447L686 446L629 452C629 433.615 626.244 417.014 614.764 402C610.801 396.817 606.43 392.401 601 388.749C597.726 386.548 592.207 385.026 590.028 381.61C588.016 378.456 588.685 372.688 588 369C600.033 371.785 609.696 380.124 622 382.714C657.138 390.109 707.989 376.902 730 347C708.433 349.726 681.321 353.076 660 348C666.751 326.652 660.404 297.824 643 283.326C634.809 276.502 622.508 274.89 615.34 266.895C610.17 261.128 607.559 252.533 603.305 246C594.044 231.781 579.03 219.149 562 215.518C557.009 214.454 552.019 215.727 547 215.231C524.671 213.028 481.739 209.396 486.185 245C487.559 256 497.555 265.061 503.302 274C510.582 285.324 514.859 298.635 520 311z"/>
<path style="fill:#a1a1a5; stroke:none;" d="M534 213L534 214L537 214L534 213M507.667 214.333L508.333 214.667L507.667 214.333M541 214L541 215L546 215L541 214M554 214L554 215L560 215L554 214M730.333 214.667L730.667 215.333L730.333 214.667M828 214L829 215L828 214M835 214L836 215L835 214M504.667 215.333L505.333 215.667L504.667 215.333M548 215L548 216L552 216L548 215M562.667 215.333L563.333 215.667L562.667 215.333M579 215L580 216L579 215M902 215L903 216L902 215M502 216L503 217L502 216M565.667 216.333L566.333 216.667L565.667 216.333M581 216L582 217L581 216M827 216L828 217L827 216M834 216L835 217L834 216M500.667 217.333L501.333 217.667L500.667 217.333M568.667 217.333L569.333 217.667L568.667 217.333M582 217L583 218L582 217M903.333 217.667L903.667 218.333L903.333 217.667M499 218L500 219L499 218M570.667 218.333L571.333 218.667L570.667 218.333M584 218L585 219L584 218M497 219L498 220L497 219M573 219L574 220L573 219M760.667 219.333L761.333 219.667L760.667 219.333M826.333 219.667L826.667 220.333L826.333 219.667M833 219L834 220L833 219M496 220L497 221L496 220M574.667 220.333L575.333 220.667L574.667 220.333M587 220L588 221L587 220M728 220L729 221L728 220M758 220L759 221L758 220M576 221L577 222L576 221M757 221L758 222L757 221M832 221L832 224L833 224L832 221M904.333 221.667L904.667 222.333L904.333 221.667M578 222L579 223L578 222M590 222L591 223L590 222M762 222L763 223L762 222M580 223L581 224L580 223M591 223L592 224L591 223M727.333 223.667L727.667 224.333L727.333 223.667M825 223L826 224L825 223z"/>
<path style="fill:#fdd305; stroke:none;" d="M825 224L826 225L825 224z"/>
<path style="fill:#a1a1a5; stroke:none;" d="M583 225L584 226L583 225M752 225L753 226L752 225M490 226L491 227L490 226z"/>
<path style="fill:#d61a21; stroke:none;" d="M559 324C558.682 319.26 558.407 316.337 563 314C564.473 332.031 577.144 351.856 595 357C591.838 351.923 587.962 347.38 585.27 342C577.195 325.86 583.199 310.894 603 314.465C621.347 317.773 632.634 332.67 649 339C649 325.231 648.626 310.591 640.073 299.004C628.297 283.053 594.828 276.499 576 275C580.132 263.662 575.799 260.265 569 252C580.727 253.581 591.777 259.598 599 269L600 269C594.859 250.202 576.849 230.973 557 228L560 235C544.404 229.724 512.687 216.259 500.742 235.015C494.966 244.085 505.684 256.72 510.516 264C514.139 269.457 519.932 274.221 522.821 280C525.092 284.542 524.82 290.181 527.029 295C532.89 307.785 545.328 319.978 559 324z"/>
<path style="fill:#a1a1a5; stroke:none;" d="M595 226L596 227L595 226M751 226L752 227L751 226M763 226L764 227L763 226M831.333 226.667L831.667 227.333L831.333 226.667M489 227L490 228L489 227M586 227L587 228L586 227M596 227L597 228L596 227M726 227L727 228L726 227M587 228L588 229L587 228M597 228L598 229L597 228M824 228L824 231L825 231L824 228M488 229L489 230L488 229M598 229L599 230L598 229M764 229L764 232L765 232L764 229M904.333 229.667L904.667 230.333L904.333 229.667M599 230L600 231L599 230M487 231L488 232L487 231M591 231L592 232L591 231M600 231L601 232L600 231M725 231L726 232L725 231M747 231L748 232L747 231M592 232L593 233L592 232M601 232L602 233L601 232M746 232L747 233L746 232M486.333 233.667L486.667 234.333L486.333 233.667M593 233L594 234L593 233M745 233L746 234L745 233M830 233L830 239L831 239L830 233M903.333 233.667L903.667 234.333L903.333 233.667M594 234L595 235L594 234M765 234L766 235L765 234z"/>
<path style="fill:#060504; stroke:none;" d="M560 235L561 236L560 235z"/>
<path style="fill:#a1a1a5; stroke:none;" d="M595 235L596 236L595 235M724.333 235.667L724.667 236.333L724.333 235.667M744 235L745 236L744 235M604 236L605 237L604 236M743 236L744 237L743 236M485 237L485 244L486 244L485 237M605 237L606 238L605 237M903 237L904 238L903 237M766 238L767 239L766 238M823 238L824 239L823 238M598 239L599 240L598 239M741 239L742 240L741 239M904 239L905 240L904 239M599 240L600 241L599 240M607 240L608 241L607 240M829.333 240.667L829.667 241.333L829.333 240.667M600 241L601 242L600 241M723.333 241.667L723.667 242.333L723.333 241.667M740 241L741 242L740 241M822 241L823 242L822 241z"/>
<path style="fill:#d61a21; stroke:none;" d="M767 242L768 243L767 242z"/>
<path style="fill:#a1a1a5; stroke:none;" d="M905.333 242.667L905.667 243.333L905.333 242.667M601 243L602 244L601 243M609 243L610 244L609 243M739 243L740 244L739 243M767.333 243.667L767.667 244.333L767.333 243.667M602 244L603 245L602 244M828 244L829 245L828 244z"/>
<path style="fill:#fdd305; stroke:none;" d="M610 245L611 246L610 245z"/>
<path style="fill:#a1a1a5; stroke:none;" d="M821 245L822 246L821 245M603 246L604 247L603 246M722 246L722 250L723 250L722 246M906 246L906 249L907 249L906 246M486 247L487 248L486 247M604 247L605 248L604 247M768.333 247.667L768.667 248.333L768.333 247.667M827.333 247.667L827.667 248.333L827.333 247.667M612 248L613 249L612 248z"/>
<path style="fill:#d61a21; stroke:none;" d="M736 248L737 249L736 248z"/>
<path style="fill:#a1a1a5; stroke:none;" d="M605 249L606 250L605 249M736 249L737 250L736 249M820.333 249.667L820.667 250.333L820.333 249.667M487 250L488 251L487 250M613 250L614 251L613 250M606 251L607 252L606 251M735 251L736 252L735 251M826 251L826 254L827 254L826 251M488 252L489 253L488 252M614 252L615 253L614 252M769.333 252.667L769.667 253.333L769.333 252.667M734 253L735 254L734 253M489 254L490 255L489 254M608 254L609 255L608 254M615 254L616 255L615 254M819.333 254.667L819.667 255.333L819.333 254.667M490 255L491 256L490 255M733 255L734 256L733 255M609 256L610 257L609 256M616 256L617 257L616 256M906 256L906 259L907 259L906 256M491 257L492 258L491 257M770.333 257.667L770.667 258.333L770.333 257.667M881 257L882 258L881 257z"/>
<path style="fill:#ffffff; stroke:none;" d="M886 292C878.074 292.612 878.85 299.64 877.55 306C874.491 320.965 866.893 332.326 859 345C883.205 335.823 899.629 303.959 897.911 279C897.542 273.644 890.539 248.333 880.873 258.743C878.218 261.602 880.491 265.987 881.565 269C884.11 276.141 885.936 284.422 886 292z"/>
<path style="fill:#a1a1a5; stroke:none;" d="M887.667 257.333L888.333 257.667L887.667 257.333M492 258L493 259L492 258M617 258L618 259L617 258M732 258L733 259L732 258M825 258L825 261L826 261L825 258M889 258L890 259L889 258M879.333 259.667L879.667 260.333L879.333 259.667M493 260L494 261L493 260M611 260L612 261L611 260M618 260L619 261L618 260M721 260L721 273L722 273L721 260M731 260L732 261L731 260M494 261L495 262L494 261M818 261L818 276L819 276L818 261M905 261L906 262L905 261M619 262L620 263L619 262M771 262L772 263L771 262M893 262L894 263L893 262M612 263L613 264L612 263M620 263L621 264L620 263M730.333 263.667L730.667 264.333L730.333 263.667M879.333 263.667L879.667 264.333L879.333 263.667M496 264L497 265L496 264M621 264L622 265L621 264M894 264L895 265L894 264M904.333 264.667L904.667 265.333L904.333 264.667M497 265L498 266L497 265M623 265L624 266L623 265M614 266L615 267L614 266M625 266L626 267L625 266M729.333 266.667L729.667 267.333L729.333 266.667M772.333 266.667L772.667 267.333L772.333 266.667M880 266L881 267L880 266M895 266L896 267L895 266M615 267L616 268L615 267M627 267L628 268L627 267M499 268L500 269L499 268M616 268L617 269L616 268M629 268L630 269L629 268M881 268L882 269L881 268M905.333 268.667L905.667 269.333L905.333 268.667M500 269L501 270L500 269M617 269L618 270L617 269M631 269L632 270L631 269M728.333 269.667L728.667 270.333L728.333 269.667M896 269L897 270L896 269M619 270L620 271L619 270M634 270L635 271L634 270M501 271L502 272L501 271M621 271L622 272L621 271M636 271L637 272L636 271M773 271L774 272L773 271M882.333 271.667L882.667 272.333L882.333 271.667M502 272L503 273L502 272M623 272L624 273L623 272M638 272L639 273L638 272M906 272L907 273L906 272M625 273L626 274L625 273M640 273L641 274L640 273M727.333 273.667L727.667 274.333L727.333 273.667M897 273L897 276L898 276L897 273M503 274L504 275L503 274M626.667 274.333L627.333 274.667L626.667 274.333M774.333 274.667L774.667 275.333L774.333 274.667M504 275L505 276L504 275M629 275L630 276L629 275M643 275L644 276L643 275M883 275L883 279L884 279L883 275M907.333 275.667L907.667 276.333L907.333 275.667M631.667 276.333L632.333 276.667L631.667 276.333M505 277L506 278L505 277M633.667 277.333L634.333 277.667L633.667 277.333M646 277L647 278L646 277M726.333 277.667L726.667 278.333L726.333 277.667M825 277L825 280L826 280L825 277M647 278L648 279L647 278M775 278L776 279L775 278M506 279L507 280L506 279M637 279L638 280L637 279z"/>
<path style="fill:#fdd305; stroke:none;" d="M648 279L649 280L648 279z"/>
<path style="fill:#a1a1a5; stroke:none;" d="M639 280L640 281L639 280M507 281L508 282L507 281M640 281L641 282L640 281M725.333 281.667L725.667 282.333L725.333 281.667M776 281L777 282L776 281z"/>
<path style="fill:#fdd305; stroke:none;" d="M819 281L820 282L819 281z"/>
<path style="fill:#a1a1a5; stroke:none;" d="M884 281L885 282L884 281M898 281L898 286L899 286L898 281M642 282L643 283L642 282M722 282L722 285L723 285L722 282M819 282L820 283L819 282M908 282L908 286L909 286L908 282M508 283L509 284L508 283M643 283L644 284L643 283M644 284L645 285L644 284M653 284L654 285L653 284M826.333 284.667L826.667 285.333L826.333 284.667M885 284L885 287L886 287L885 284M509 285L510 286L509 285M645 285L646 286L645 285M654 285L655 286L654 285M646 286L647 287L646 286M655 286L656 287L655 286M778 286L779 287L778 286z"/>
<path style="fill:#fdd305; stroke:none;" d="M820 286L821 287L820 286z"/>
<path style="fill:#a1a1a5; stroke:none;" d="M510 287L511 288L510 287M647 287L648 288L647 287M724 287L723 290L724 287M820 287L821 288L820 287M648 288L649 289L648 288M779 288L780 289L779 288M827.333 288.667L827.667 289.333L827.333 288.667M649 289L650 290L649 289M657 289L658 290L657 289M780 290L781 291L780 290M699 291L699 294L700 294L699 291M821.333 291.667L821.667 292.333L821.333 291.667M881 291L881 292L884 292L881 291M897 291L897 294L898 294L897 291M512 292L513 293L512 292M651 292L652 293L651 292M659 292L660 293L659 292M828 292L829 293L828 292M880 292L881 293L880 292M907.333 292.667L907.667 293.333L907.333 292.667M652 293L653 294L652 293M782 293L783 294L782 293M879.333 293.667L879.667 294.333L879.333 293.667M660 294L661 295L660 294z"/>
<path style="fill:#fdd305; stroke:none;" d="M822 294L823 295L822 294z"/>
<path style="fill:#a1a1a5; stroke:none;" d="M829.333 294.667L829.667 295.333L829.333 294.667M513 295L514 296L513 295M653 295L654 296L653 295M700 295L701 296L700 295M783 295L784 296L783 295M654.333 296.667L654.667 297.333L654.333 296.667M661 296L662 297L661 296z"/>
<path style="fill:#d61a21; stroke:none;" d="M784 296L785 297L784 296z"/>
<path style="fill:#a1a1a5; stroke:none;" d="M514 297L515 298L514 297M701 297L702 298L701 297M823 297L824 298L823 297M830 297L831 298L830 297M896 297L897 298L896 297M906 297L906 300L907 300L906 297M662 298L663 299L662 298M702 298L703 299L702 298M785 298L786 299L785 298M786 299L787 300L786 299M878.333 299.667L878.667 300.333L878.333 299.667M515.333 300.667L515.667 301.333L515.333 300.667M656.333 300.667L656.667 301.333L656.333 300.667M824 300L825 301L824 300M831 300L832 301L831 300M895 300L896 301L895 300M787 301L788 302L787 301M706 302L707 303L706 302M788 302L789 303L788 302M825 302L826 303L825 302M832 302L833 303L832 302M905.333 302.667L905.667 303.333L905.333 302.667M516 303L517 304L516 303M657 303L658 304L657 303M664 303L665 304L664 303M707 303L708 304L707 303M894.333 303.667L894.667 304.333L894.333 303.667M709 304L710 305L709 304M826 304L827 305L826 304M877 304L877 307L878 307L877 304M517 305L518 306L517 305M711 305L712 306L711 305M834 305L835 306L834 305M904 305L905 306L904 305M658 306L659 307L658 306M665 306L666 307L665 306M714 306L715 307L714 306M791 306L792 307L791 306M827 306L828 307L827 306M893 306L894 307L893 306M518 307L519 308L518 307z"/>
<path style="fill:#fdd305; stroke:none;" d="M665 307L666 308L665 307z"/>
<path style="fill:#a1a1a5; stroke:none;" d="M718.667 307.333L719.333 307.667L718.667 307.333M792.333 307.667L792.667 308.333L792.333 307.667M835 307L836 308L835 307M659.333 308.667L659.667 309.333L659.333 308.667M724 308L724 309L729 309L724 308M836 308L837 309L836 308M892 308L893 309L892 308M903.333 308.667L903.667 309.333L903.333 308.667M498 309L498 310L503 310L498 309M508 309L508 310L513 310L508 309M519 309L517 310L517 311L519 309z"/>
<path style="fill:#fdd305; stroke:none;" d="M829 309L830 310L829 309z"/>
<path style="fill:#a1a1a5; stroke:none;" d="M876.333 309.667L876.667 310.333L876.333 309.667M493.667 310.333L494.333 310.667L493.667 310.333z"/>
<path style="fill:#ffffff; stroke:none;" d="M519 310L520 311L519 310z"/>
<path style="fill:#a1a1a5; stroke:none;" d="M666 310L667 311L666 310M891.333 310.667L891.667 311.333L891.333 310.667M490.667 311.333L491.333 311.667L490.667 311.333M830 311L831 312L830 311M838 311L839 312L838 311M902 311L903 312L902 311M488 312L489 313L488 312M660.333 312.667L660.667 313.333L660.333 312.667z"/>
<path style="fill:#fdd305; stroke:none;" d="M831 312L832 313L831 312z"/>
<path style="fill:#a1a1a5; stroke:none;" d="M839 312L840 313L839 312M485.667 313.333L486.333 313.667L485.667 313.333M840 313L841 314L840 313M875 313L876 314L875 313M890 313L891 314L890 313M484 314L485 315L484 314M667.333 314.667L667.667 315.333L667.333 314.667M833 315L834 316L833 315M481 316L482 317L481 316M834 316L835 317L834 316M874.333 316.667L874.667 317.333L874.333 316.667M888 316L889 317L888 316M900 316L901 317L900 316M480 317L481 318L480 317M661 317L661 320L662 320L661 317M479 318L480 319L479 318M887 318L888 319L887 318M899 318L900 319L899 318M873 319L874 320L873 319M886 319L887 320L886 319M898 320L899 321L898 320M477 321L478 322L477 321M668 321L668 326L669 326L668 321M848 321L849 322L848 321M872.333 321.667L872.667 322.333L872.333 321.667M885 321L886 322L885 321M476 322L477 323L476 322M849 322L850 323L849 322M884 322L885 323L884 322M897 322L898 323L897 322z"/>
<path style="fill:#d61a21; stroke:none;" d="M530 426L528 418C545.595 438.644 549.818 471.725 583 472C572.769 459.312 557.94 449.409 552.904 433C549.971 423.442 556.283 413.289 567 415.519C588.404 419.972 597.865 441.543 616 450C616 417.325 594.544 389.506 560 388L560 387C570.865 384.283 568.826 378.244 560.985 371.615C551.452 363.555 539.007 353.801 527 350L527 349C532.777 347.795 532.981 344.315 533 339C548.95 344.919 567.789 363.758 575 379L576 379C575.049 356.895 559.753 336.233 540 327L540 331C526.459 327.305 503.348 315.575 490.329 326.649C482.881 332.984 484.025 346.651 486.749 355C489.949 364.805 496.049 372.784 500.37 382C508.315 398.948 511.314 416.627 530 426z"/>
<path style="fill:#a1a1a5; stroke:none;" d="M896 323L897 324L896 323M475 324L476 325L475 324M871 324L872 325L871 324M662 325L662 336L663 336L662 325M853 325L854 326L853 325M882 325L883 326L882 325M895 325L896 326L895 325M474 326L475 327L474 326M586 326L591 331L586 326M854 326L855 327L854 326M870 326L871 327L870 326M881 326L882 327L881 326M894 326L895 327L894 326z"/>
<path style="fill:#ffffff; stroke:none;" d="M586 327C586.376 335.744 589.643 343.057 594.9 350C619.279 382.2 658.833 374.794 692 362L692 361C674.96 361.732 658.796 363.905 642 359.09C634.402 356.912 628.12 350.139 621 348.316C616.933 347.274 614.298 351.156 610 348.808C600.632 343.69 594.707 333.134 586 327z"/>
<path style="fill:#a1a1a5; stroke:none;" d="M844 327L845 328L844 327M855 327L856 328L855 327M880 327L881 328L880 327M473.333 328.667L473.667 329.333L473.333 328.667M585 328L586 329L585 328M845 328L846 329L845 328M857 328L858 329L857 328M869 328L870 329L869 328M893 328L894 329L893 328M892 329L893 330L892 329M868 330L869 331L868 330M857 331L858 332L857 331M472 332L473 333L472 332M586 332L586 335L587 335L586 332M867 332L868 333L867 332M876 332L877 333L876 332M890 332L891 333L890 332M856 333L857 334L856 333M875 333L876 334L875 333M889 333L890 334L889 333M847 334L848 335L847 334M866 334L867 335L866 334M874 334L875 335L874 334M888 334L889 335L888 334M668 335L668 340L669 340L668 335M846 335L847 336L846 335M855 335L856 336L855 335M865 335L866 336L865 335M471 336L471 340L472 340L471 336M854 336L855 337L854 336M587 337L588 338L587 337M864 337L865 338L864 337M853 338L854 339L853 338M863 338L864 339L863 338M869 338L870 339L869 338M588 339L589 340L588 339M843 339L844 340L843 339M852 339L853 340L852 339M868 339L869 340L868 339M884 339L885 340L884 339M725 340L725 341L741 341L725 340M749 340L750 341L749 340M842 340L843 341L842 340M867 340L868 341L867 340M883 340L884 341L883 340M589 341L590 342L589 341M661.333 341.667L661.667 342.333L661.333 341.667M708 341L708 342L714 342L708 341z"/>
<path style="fill:#fdd305; stroke:none;" d="M714 341L714 342L717 342L714 341z"/>
<path style="fill:#a1a1a5; stroke:none;" d="M748 341L749 342L748 341M841 341L842 342L841 341M861 341L862 342L861 341M865 341L866 342L865 341M882 341L883 342L882 341M602 342L603 343L602 342M668 342L668 343L673 343L668 342M688 342L688 343L698 343L688 342M747 342L748 343L747 342M850 342L851 343L850 342M860 342L861 343L860 342M864 342L865 343L864 342M881 342L882 343L881 342M471 343L471 348L472 348L471 343M590 343L591 344L590 343M603 343L604 344L603 343M849 343L850 344L849 343M862 343L863 344L862 343M604 344L605 345L604 344z"/>
<path style="fill:#fdd305; stroke:none;" d="M744 344L745 345L744 344z"/>
<path style="fill:#a1a1a5; stroke:none;" d="M848 344L849 345L848 344M605 345L606 346L605 345M743 345L744 346L743 345M838 345L839 346L838 345M858.667 345.333L859.333 345.667L858.667 345.333M877 345L878 346L877 345M592 346L593 347L592 346M606 346L607 347L606 346M620 346L621 347L620 346M742 346L743 347L742 346M837 346L838 347L837 346M857 346L858 347L857 346M876 346L877 347L876 346M607 347L608 348L607 347M618 347L619 348L618 347M621 347L622 348L621 347M660 347L661 348L660 347M713 347L713 348L727 348L713 347M730 347L731 348L730 347M836 347L837 348L836 347M875 347L876 348L875 347M609 348L610 349L609 348M617 348L618 349L617 348M622 348L623 349L622 348M661 348L661 349L665 349L661 348M698 348L698 349L707 349L698 348M729 348L730 349L729 348M845 348L846 349L845 348M594 349L595 350L594 349M610 349L611 350L610 349M616 349L617 350L616 349M623 349L624 350L623 349M672 349L672 350L689 350L672 349M728 349L729 350L728 349M738 349L739 350L738 349M844 349L845 350L844 349M872 349L873 350L872 349M595 350L596 351L595 350M612 350L612 351L615 351L612 350M624 350L625 351L624 350M727 350L728 351L727 350M737 350L738 351L737 350M843 350L844 351L843 350M871 350L872 351L871 350M472.333 351.667L472.667 352.333L472.333 351.667M625 351L626 352L625 351M736 351L737 352L736 351M869 351L870 352L869 351M627 352L628 353L627 352M724 352L725 353L724 352M832 352L833 353L832 352M868 352L869 353L868 352M628 353L629 354L628 353M723 353L724 354L723 353M831 353L832 354L831 353M866 353L867 354L866 353M630 354L631 355L630 354M722 354L723 355L722 354M732 354L733 355L732 354M864 354L865 355L864 354M473.333 355.667L473.667 356.333L473.333 355.667M632 355L633 356L632 355M731 355L732 356L731 355M839 355L840 356L839 355M862 355L863 356L862 355M634 356L635 357L634 356M719 356L720 357L719 356M838 356L839 357L838 356M860 356L861 357L860 356M637 357L638 358L637 357M718 357L719 358L718 357z"/>
<path style="fill:#fdd305; stroke:none;" d="M828 357L829 358L828 357z"/>
<path style="fill:#a1a1a5; stroke:none;" d="M837 357L838 358L837 357M857 357L858 358L857 357M639.667 358.333L640.333 358.667L639.667 358.333M717 358L718 359L717 358M727 358L728 359L727 358M827 358L828 359L827 358M854.667 358.333L855.333 358.667L854.667 358.333M474 359L475 360L474 359M643.667 359.333L644.333 359.667L643.667 359.333M715 359L716 360L715 359M726 359L727 360L726 359M826 359L827 360L826 359M852.667 359.333L853.333 359.667L852.667 359.333M647 360L647 361L650 361L647 360M690 360L690 361L694 362L690 360z"/>
<path style="fill:#ffffff; stroke:none;" d="M694 360L695 361L694 360z"/>
<path style="fill:#a1a1a5; stroke:none;" d="M695 360L696 361L695 360M714 360L715 361L714 360M725 360L726 361L725 360M825 360L826 361L825 360M849.667 360.333L850.333 360.667L849.667 360.333M606 361L607 362L606 361M653 361L653 362L658 362L653 361M680 361L680 362L687 362L680 361M713 361L714 362L713 361M834 361L835 362L834 361M847 361L848 362L847 361M475 362L476 363L475 362M607 362L608 363L607 362M665 362L665 363L673 363L665 362M690 362L691 363L690 362M711 362L712 363L711 362M722 362L723 363L722 362M833 362L834 363L833 362M844 362L845 363L844 362M608 363L609 364L608 363M688 363L689 364L688 363M710 363L711 364L710 363M721 363L722 364L721 363z"/>
<path style="fill:#fdd305; stroke:none;" d="M823 363L824 364L823 363z"/>
<path style="fill:#a1a1a5; stroke:none;" d="M832 363L833 364L832 363M841.667 363.333L842.333 363.667L841.667 363.333M476.333 364.667L476.667 365.333L476.333 364.667M609 364L610 365L609 364M685 364L686 365L685 364M822 364L823 365L822 364M831 364L832 365L831 364M839 364L840 365L839 364M682.667 365.333L683.333 365.667L682.667 365.333M707 365L708 366L707 365M718 365L719 366L718 365M821 365L822 366L821 365M836 365L837 366L836 365M612 366L613 367L612 366M679.667 366.333L680.333 366.667L679.667 366.333M717 366L718 367L717 366M820 366L821 367L820 366M833.667 366.333L834.333 366.667L833.667 366.333M477 367L478 368L477 367M613 367L614 368L613 367M676.667 367.333L677.333 367.667L676.667 367.333M704 367L705 368L704 367M831 367L832 368L831 367M615 368L616 369L615 368M672.667 368.333L673.333 368.667L672.667 368.333M702 368L703 369L702 368M714 368L715 369L714 368M829 368L830 369L829 368M478 369L479 370L478 369z"/>
<path style="fill:#ffffff; stroke:none;" d="M588 369L589 370L588 369z"/>
<path style="fill:#a1a1a5; stroke:none;" d="M589.667 369.333L590.333 369.667L589.667 369.333M617 369L618 370L617 369M668 369L668 370L671 370L668 369M701 369L702 370L701 369M588.333 370.667L588.667 371.333L588.333 370.667M592.667 370.333L593.333 370.667L592.667 370.333M619.667 370.333L620.333 370.667L619.667 370.333M664 370L664 371L667 371L664 370M699 370L700 371L699 370M711 370L712 371L711 370M817 370L818 371L817 370M479 371L480 372L479 371M596 371L597 372L596 371M622.667 371.333L623.333 371.667L622.667 371.333M659 371L659 372L662 372L659 371M697 371L698 372L697 371M816 371L817 372L816 371M838 371L839 372L838 371z"/>
<path style="fill:#060504; stroke:none;" d="M839 371L807.17 383.994L792 397.682L758 398L687 398L687 439L705 437L705 416L775 416C782.576 416 796.145 418.604 802.911 414.972C810.218 411.05 816.48 400.304 821.754 394C826.247 388.629 839.156 378.082 839 371z"/>
<path style="fill:#a1a1a5; stroke:none;" d="M840 371L841 372L840 371M598 372L599 373L598 372M626 372L626 373L630 373L626 372M651 372L651 373L656 373L651 372M695 372L696 373L695 372M708 372L709 373L708 372M815 372L816 373L815 372M835.667 372.333L836.333 372.667L835.667 372.333M480 373L481 374L480 373M599 373L600 374L599 373M634 373L634 374L646 374L634 373M693 373L694 374L693 373z"/>
<path style="fill:#fdd305; stroke:none;" d="M706 373L707 374L706 373z"/>
<path style="fill:#a1a1a5; stroke:none;" d="M833 373L834 374L833 373M601 374L602 375L601 374M691 374L692 375L691 374M705 374L706 375L705 374M830.667 374.333L831.333 374.667L830.667 374.333M481 375L482 376L481 375M589 375L589 383L590 383L589 375M602 375L603 376L602 375M688.667 375.333L689.333 375.667L688.667 375.333M703 375L704 376L703 375M827.667 375.333L828.333 375.667L827.667 375.333M837 375L838 376L837 375M604 376L605 377L604 376M686 376L687 377L686 376M701 376L702 377L701 376M812 376L813 377L812 376M825 376L826 377L825 376M836 376L837 377L836 376M606 377L607 378L606 377M683 377L684 378L683 377M811 377L812 378L811 377M822.667 377.333L823.333 377.667L822.667 377.333M835 377L836 378L835 377M483 378L484 379L483 378M608.667 378.333L609.333 378.667L608.667 378.333M680.667 378.333L681.333 378.667L680.667 378.333M698 378L699 379L698 378M810 378L811 379L810 378M819.667 378.333L820.333 378.667L819.667 378.333M834 378L835 379L834 378M611 379L612 380L611 379M676.667 379.333L677.333 379.667L676.667 379.333M695 379L696 380L695 379M817 379L818 380L817 379M484 380L485 381L484 380M614 380L615 381L614 380M672.667 380.333L673.333 380.667L672.667 380.333M693 380L694 381L693 380M814 380L815 381L814 380M616.667 381.333L617.333 381.667L616.667 381.333M668 381L668 382L671 382L668 381M691 381L692 382L691 381M811.667 381.333L812.333 381.667L811.667 381.333M832 381L833 382L832 381M619.667 382.333L620.333 382.667L619.667 382.333M663 382L663 383L666 383L663 382M688 382L689 383L688 382z"/>
<path style="fill:#fdd305; stroke:none;" d="M807 382L808 383L807 382z"/>
<path style="fill:#a1a1a5; stroke:none;" d="M809 382L810 383L809 382M831 382L832 383L831 382M486 383L487 384L486 383M591 383L592 384L591 383M624 383L624 384L627 384L624 383M656 383L656 384L660 384L656 383z"/>
<path style="fill:#fdd305; stroke:none;" d="M685 383L686 384L685 383z"/>
<path style="fill:#a1a1a5; stroke:none;" d="M686 383L687 384L686 383M807 383L808 384L807 383M830 383L831 384L830 383M593 384L594 385L593 384z"/>
<path style="fill:#fdd305; stroke:none;" d="M606 384L607 385L606 384z"/>
<path style="fill:#a1a1a5; stroke:none;" d="M629 384L629 385L653 385L629 384M682.667 384.333L683.333 384.667L682.667 384.333M829 384L830 385L829 384M595 385L596 386L595 385M607 385L608 386L607 385M609 385L610 386L609 385M679 385L680 386L679 385M487 386L487 390L488 390L487 386M597 386L598 387L597 386M608 386L609 387L608 386M611.667 386.333L612.333 386.667L611.667 386.333M675.667 386.333L676.333 386.667L675.667 386.333M599 387L600 388L599 387M614 387L615 388L614 387z"/>
<path style="fill:#fdd305; stroke:none;" d="M615 387L616 388L615 387z"/>
<path style="fill:#a1a1a5; stroke:none;" d="M671.667 387.333L672.333 387.667L671.667 387.333M600 388L601 389L600 388M617.667 388.333L618.333 388.667L617.667 388.333M666.667 388.333L667.333 388.667L666.667 388.333M826 388L827 389L826 388M621.667 389.333L622.333 389.667L621.667 389.333M660 389L660 390L663 390L660 389M825 389L826 390L825 389M603 390L604 391L603 390M626 390L626 391L630 391L626 390z"/>
<path style="fill:#fdd305; stroke:none;" d="M630 390L631 391L630 390z"/>
<path style="fill:#a1a1a5; stroke:none;" d="M650 390L651 391L650 390z"/>
<path style="fill:#fdd305; stroke:none;" d="M651 390L652 391L651 390z"/>
<path style="fill:#a1a1a5; stroke:none;" d="M652 390L652 391L656 391L652 390M824 390L825 391L824 390M604 391L605 392L604 391M823 391L824 392L823 391M488 392L489 393L488 392M489.333 395.667L489.667 396.333L489.333 395.667M820 395L821 396L820 395M618 396L619 397L618 396M819 396L820 397L819 396M619 397L620 398L619 397M818 397L819 398L818 397M612 399L613 400L612 399M613 400L614 401L613 400z"/>
<path style="fill:#fdd305; stroke:none;" d="M621 400L622 401L621 400z"/>
<path style="fill:#a1a1a5; stroke:none;" d="M614 401L615 402L614 401M622 401L623 402L622 401M815 401L816 402L815 401M814 402L815 403L814 402M813 403L814 404L813 403M616 404L617 405L616 404M624 404L625 405L624 404M812 404L813 405L812 404M489 405L490 406L489 405M617 405L618 406L617 405M487 406L488 407L487 406M625 406L626 407L625 406M485 407L486 408L485 407M618 407L619 408L618 407M619 408L620 409L619 408M809 408L810 409L809 408M482 409L483 410L482 409z"/>
<path style="fill:#d61a21; stroke:none;" d="M502 409C502 426.936 509.118 441.34 519 456L521 456L524 452C524.002 466.868 530.525 479.073 539 491C546.166 480.397 552.701 471.084 566 480.221C570.846 483.549 583.411 500.388 590.258 493.397C595.883 487.653 587.974 480.619 582.999 478.707C571.579 474.317 560.592 473.007 551.004 464.7C543.967 458.603 540.652 450.323 535.24 443C526.547 431.237 513.734 417.636 502 409z"/>
<path style="fill:#a1a1a5; stroke:none;" d="M808 409L809 410L808 409M481 410L482 411L481 410M620 410L621 411L620 410M807 410L808 411L807 410M628 411L629 412L628 411M806 411L807 412L806 411M621 412L622 413L621 412M478 413L479 414L478 413M477 414L478 415L477 414M622 414L623 415L622 414M629 414L630 415L629 414M804 414L805 415L804 414M803 415L804 416L803 415M476 416L477 417L476 416M623 416L624 417L623 416M630 416L631 417L630 416M475.333 417.667L475.667 418.333L475.333 417.667z"/>
<path style="fill:#d61a21; stroke:none;" d="M528 493C527.54 483.081 519.438 475.313 516.166 466C513.582 458.645 509.374 452.405 505.028 446C502.268 441.933 498.521 436.994 497.797 432C497.239 428.149 500.159 423.857 497.254 420.438C490.088 412.003 485.579 429.163 486.468 434C488.782 446.59 499.484 452.502 506.347 462.039C513.987 472.657 510.834 491.23 528 493z"/>
<path style="fill:#a1a1a5; stroke:none;" d="M624 419L625 420L624 419M631 419L632 420L631 419M474 420L475 421L474 420z"/>
<path style="fill:#ffffff; stroke:none;" d="M558 420C553.812 431.491 559.558 440.975 566.669 450C586.434 475.084 611.333 476.348 639 465L639 464C628.983 464.791 618.796 466.938 609 463.451C603.212 461.391 598.766 456.612 593 454.702C585.237 452.13 580.906 456.754 574.04 449.957C565.301 441.305 564.205 429.861 558 420z"/>
<path style="fill:#a1a1a5; stroke:none;" d="M557 421L558 422L557 421M559.333 421.667L559.667 422.333L559.333 421.667M625 421L626 422L625 421M473 422L473 425L474 425L473 422M632 422L633 423L632 422M556 423L557 424L556 423M626.333 424.667L626.667 425.333L626.333 424.667M560 425L561 426L560 425M633.333 425.667L633.667 426.333L633.333 425.667M555 427L556 428L555 427M561 428L562 429L561 428M627.333 428.667L627.667 429.333L627.333 428.667M472 429L472 432L473 432L472 429M562 430L563 431L562 430M634.333 430.667L634.667 431.333L634.333 430.667M556.333 431.667L556.667 432.333L556.333 431.667M628 432L628 436L629 436L628 432z"/>
<path style="fill:#fdd305; stroke:none;" d="M634 432L635 433L634 432z"/>
<path style="fill:#a1a1a5; stroke:none;" d="M563 433L564 434L563 433M557 435L558 436L557 435M564 435L565 436L564 435M473 436L473 439L474 439L473 436M558 437L559 438L558 437M565 437L566 438L565 437M635 437C635.047 440.935 634.954 443.657 639 445L639 444L636 444L635 437M699 437L699 438L704 438L699 437M690 438L690 439L696 439L690 438M559 439L560 440L559 439M566.333 439.667L566.667 440.333L566.333 439.667M680 439L680 440L684 440L680 439z"/>
<path style="fill:#fdd305; stroke:none;" d="M684 439L685 440L684 439z"/>
<path style="fill:#a1a1a5; stroke:none;" d="M474 440L475 441L474 440M671 440L671 441L675 441L671 440z"/>
<path style="fill:#fdd305; stroke:none;" d="M675 440L676 441L675 440z"/>
<path style="fill:#a1a1a5; stroke:none;" d="M560 441L561 442L560 441M567 441L568 442L567 441M661 441L661 442L666 442L661 441M561 442L562 443L561 442M653 442L653 443L657 443L653 442M703 442L704 443L703 442z"/>
<path style="fill:#060504; stroke:none;" d="M704 442C691.166 451.192 687 453.983 687 470L692 469L692 470C682.759 475.185 687 497.523 687 507L687 543C687 548.248 685.867 555.073 687.934 560C696.968 581.53 719.888 596.447 729 618L545 618L580.285 578L595.258 560L596 532C591.106 535.742 583.525 540.925 579.603 545.495C577.601 547.829 578.002 551.333 576.566 554C573.782 559.174 568.729 563.639 564.834 568C545.523 589.626 521.994 610.82 506 635L765 635L723.127 578L705.303 552L705 525L705 471L704 442z"/>
<path style="fill:#a1a1a5; stroke:none;" d="M475 443L476 444L475 443M568 443L569 444L568 443M644 443L644 444L648 444L644 443z"/>
<path style="fill:#fdd305; stroke:none;" d="M648 443L649 444L648 443z"/>
<path style="fill:#a1a1a5; stroke:none;" d="M562 444L563 445L562 444z"/>
<path style="fill:#fdd305; stroke:none;" d="M635 444L636 445L635 444z"/>
<path style="fill:#a1a1a5; stroke:none;" d="M700 444L701 445L700 444M476 445L477 446L476 445M563 445L564 446L563 445M685 445L687 447L687 445L685 445M699 445L700 446L699 445M570 446L571 447L570 446M674 446L674 447L681 447L674 446M697 446L698 447L697 446M564 447L565 448L564 447M571 447L572 448L571 447M666 447L666 448L671 448L666 447M685 447L686 448L685 447M696 447L697 448L696 447M565 448L566 449L565 448M656 448L656 449L661 449L656 448M683 448L684 449L683 448M694 448L695 449L694 448M478 449L479 450L478 449M566 449L567 450L566 449M647 449L647 450L653 450L647 449M682 449L683 450L682 449M693 449L694 450L693 449M639 450L639 451L644 451L639 450M632 451L632 452L636 452L632 451M679 451L680 452L679 451M690 451L691 452L690 451M480 452L481 453L480 452M576 452L577 453L576 452M689 452L690 453L689 452M569 453L570 454L569 453M577 453L578 454L577 453M586 453L586 454L591 454L586 453M676 453L677 454L676 453M687 453L688 454L687 453M570 454L571 455L570 454M579 454L580 455L579 454M584 454L585 455L584 454M593 454L594 455L593 454M686 454L687 455L686 454M482 455L483 456L482 455M571 455L572 456L571 455M581 455L581 456L584 456L581 455M595 455L596 456L595 455M673 455L674 456L673 455z"/>
<path style="fill:#d61a21; stroke:none;" d="M655 476L655 477C661.611 476.11 681.773 474.552 685.972 469.262C688.421 466.176 687 458.747 687 455L655 476z"/>
<path style="fill:#a1a1a5; stroke:none;" d="M483 456L484 457L483 456M572 456L573 457L572 456M596 456L597 457L596 456M683 456L684 457L683 456M573 457L574 458L573 457M598 457L599 458L598 457M670 457L671 458L670 457M574 458L575 459L574 458M599 458L600 459L599 458M669 458L670 459L669 458M680 458L681 459L680 458M601 459L602 460L601 459M667 459L668 460L667 459M486 460L487 461L486 460M602 460L603 461L602 460M666 460L667 461L666 460M677 460L678 461L677 460M487 461L488 462L487 461M578 461L579 462L578 461M604 461L605 462L604 461M664 461L665 462L664 461M676 461L677 462L676 461M488 462L489 463L488 462M579 462L580 463L579 462M606 462L607 463L606 462M663 462L664 463L663 462z"/>
<path style="fill:#fdd305; stroke:none;" d="M674 462L675 463L674 462z"/>
<path style="fill:#a1a1a5; stroke:none;" d="M489 463L490 464L489 463M580 463L581 464L580 463M608.667 463.333L609.333 463.667L608.667 463.333M638.667 463.333L639.333 463.667L638.667 463.333M661 463L662 464L661 463M673 463L674 464L673 463M490 464L491 465L490 464M612.667 464.333L613.333 464.667L612.667 464.333M630 464L630 465L635 465L630 464M660 464L661 465L660 464M491 465L492 466L491 465M583 465L584 466L583 465M619 465L619 466L624 466L619 465M637 465L638 466L637 465M670 465L671 466L670 465M492 466L493 467L492 466M584 466L585 467L584 466M635 466L636 467L635 466M657 466L658 467L657 466M493 467L494 468L493 467M586 467L587 468L586 467M633 467L634 468L633 467M667 467L668 468L667 467M494 468L495 469L494 468M588 468L589 469L588 468M630 468L631 469L630 468M654 468L655 469L654 468M495 469L496 470L495 469M590 469L591 470L590 469M627.667 469.333L628.333 469.667L627.667 469.333M653 469L654 470L653 469M664 469L665 470L664 469M689 469L690 471L691 471L692 469L689 469M592 470L593 471L592 470M624 470L625 471L624 470M651 470L652 471L651 470M663 470L664 471L663 470M685.667 470.333L686.333 470.667L685.667 470.333M595.667 471.333L596.333 471.667L595.667 471.333M619 471L619 472L622 472L619 471M650 471L651 472L650 471M661 471L662 472L661 471M680.667 471.333L681.333 471.667L680.667 471.333z"/>
<path style="fill:#fdd305; stroke:none;" d="M682 471L683 472L682 471z"/>
<path style="fill:#a1a1a5; stroke:none;" d="M496.333 472.667L496.667 473.333L496.333 472.667M598 472L598 473L602 473L598 472M613 472L613 473L617 473L613 472M648 472L649 473L648 472M660 472L661 473L660 472M676.667 472.333L677.333 472.667L676.667 472.333M687 472L688 473L687 472M647 473L648 474L647 473M671.667 473.333L672.333 473.667L671.667 473.333M686 473L687 474L686 473M657 474L658 475L657 474M667.667 474.333L668.333 474.667L667.667 474.333z"/>
<path style="fill:#fdd305; stroke:none;" d="M684 474L685 475L684 474z"/>
<path style="fill:#d61a21; stroke:none;" d="M596 532C596 539.973 598.121 551.504 595.258 559C592.989 564.939 586.295 570.347 582.075 575C570.253 588.034 553.09 602.406 545 618L729 618C723.186 595.633 696.842 580.232 687.934 559C684.944 551.872 687 540.649 687 533L687 474C653.505 486.7 632.103 523.643 596 532z"/>
<path style="fill:#a1a1a5; stroke:none;" d="M497.333 475.667L497.667 476.333L497.333 475.667M644 475L645 476L644 475M662.667 475.333L663.333 475.667L662.667 475.333M683 475L684 476L683 475M654 476L653 478L655 478L654 476M658.667 476.333L659.333 476.667L658.667 476.333M641 477L642 478L641 477z"/>
<path style="fill:#fdd305; stroke:none;" d="M655 477L656 478L655 477z"/>
<path style="fill:#a1a1a5; stroke:none;" d="M680 477L681 478L680 477M498.333 478.667L498.667 479.333L498.333 478.667M639 478L640 479L639 478M637 479L638 480L637 479z"/>
<path style="fill:#fdd305; stroke:none;" d="M677 479L678 480L677 479z"/>
<path style="fill:#a1a1a5; stroke:none;" d="M635.667 480.333L636.333 480.667L635.667 480.333M676 480L677 481L676 480M633.667 481.333L634.333 481.667L633.667 481.333M499 482L500 483L499 482M631 482L632 483L631 482M660.333 482.667L660.667 483.333L660.333 482.667M673 482L674 483L673 482M629 483L630 484L629 483M656.667 483.333L657.333 483.667L656.667 483.333M500 484L501 485L500 484M626 484L627 485L626 484M651 484L651 485L654 485L651 484M659 484L660 485L659 484M670 484L671 485L670 484M622.667 485.333L623.333 485.667L622.667 485.333M646 485L646 486L649 486L646 485M669 485L670 486L669 485M501.333 486.667L501.667 487.333L501.333 486.667M617 486L617 487L621 487L617 486M642 486L642 487L645 487L642 486M656 486L657 487L656 486M667 486L668 487L667 486M605 487L605 488L613 488L605 487M638.667 487.333L639.333 487.667L638.667 487.333M655 487L656 488L655 487M666 487L667 488L666 487M544 488L544 491L552 496L544 488M633 488L633 489L636 489L633 488M653 488L654 489L653 488z"/>
<path style="fill:#ffffff; stroke:none;" d="M544 489L545 490L544 489z"/>
<path style="fill:#a1a1a5; stroke:none;" d="M628 489L628 490L631 490L628 489M652 489L653 490L652 489M663 489L664 490L663 489M503 490L504 491L503 490z"/>
<path style="fill:#ffffff; stroke:none;" d="M545 490C546.217 494.224 548.143 498.257 550.468 502C564.489 524.578 586.227 517.477 606 509L606 508C589.031 509.339 581.669 507.104 567.005 498.898C563.812 497.112 562.091 497.757 561 501L545 490z"/>
<path style="fill:#a1a1a5; stroke:none;" d="M605 490L606 491L605 490M624.667 490.333L625.333 490.667L624.667 490.333M651 490L652 491L651 490M619 491L619 492L622 492L619 491M649 491L650 492L649 491M660 491L661 492L660 491M504 492L505 493L504 492M545 492L546 493L545 492M615.667 492.333L616.333 492.667L615.667 492.333M648 492L649 493L648 492M659 492L660 493L659 492M611.667 493.333L612.333 493.667L611.667 493.333M647 493L648 494L647 493M546 494L547 495L546 494M604 494L605 495L604 494M606.667 494.333L607.333 494.667L606.667 494.333M645 494L646 495L645 494M656 494L657 495L656 494M506 495L507 496L506 495M644 495L645 496L644 495M655 495L656 496L655 495M507 496L508 497L507 496M534 496L534 499L536 498L536 497L534 496M547 496L548 497L547 496M562.667 496.333L563.333 496.667L562.667 496.333M643 496L644 497L643 496M508 497L509 498L508 497M561 497L562 498L561 497M565 497L566 498L565 497M641 497L642 498L641 497M652 497L653 498L652 497z"/>
<path style="fill:#ffffff; stroke:none;" d="M535 498C536.803 520.068 551.113 527.631 571 529L571 528C556.512 519.536 546.85 509.61 535 498z"/>
<path style="fill:#a1a1a5; stroke:none;" d="M548 498L549 499L548 498M555 498L556 499L555 498M566 498L567 499L566 498M640 498L641 499L640 498M651 498L652 499L651 498M510 499L511 500L510 499M536 499L537 500L536 499M556 499L557 500L556 499M639 499L640 500L639 499M511 500L512 501L511 500M537 500L538 501L537 500M549 500L550 501L549 500M558 500L559 501L558 500M560 500L561 501L560 500M569 500L570 501L569 500M637 500L638 501L637 500M648 500L649 501L648 500M512 501L513 502L512 501M570 501L571 502L570 501M636 501L637 502L636 501M647 501L648 502L647 501M514 502L515 503L514 502M535.333 502.667L535.667 503.333L535.333 502.667M571 502L572 503L571 502M635 502L636 503L635 502M515 503L516 504L515 503M539 503L540 504L539 503M551 503L552 504L551 503M573 503L574 504L573 503M644 503L645 504L644 503M518 504L519 505L518 504M540 504L541 505L540 504M574 504L575 505L574 504M632 504L633 505L632 504M643 504L644 505L643 504M520.667 505.333L521.333 505.667L520.667 505.333M576 505L577 506L576 505M631 505L632 506L631 505M536.333 506.667L536.667 507.333L536.333 506.667M553 506L554 507L553 506M578 506L579 507L578 506M640 506L641 507L640 506M554 507L555 508L554 507M581.667 507.333L582.333 507.667L581.667 507.333M605 507L606 509L607 509L608 507L605 507M628 507L629 508L628 507M639 507L640 508L639 507M523 508L524 509L523 508M555 508L556 509L555 508M584 508L584 509L589 509L584 508M597 508L597 509L602 509L597 508M627 508L628 509L627 508M537 509L538 510L537 509M556 509L557 510L556 509M604 509L605 510L604 509M636 509L637 510L636 509M557 510L558 511L557 510M602 510L603 511L602 510M624 510L625 511L624 510M635 510L636 511L635 510M524 511L525 512L524 511M538.333 511.667L538.667 512.333L538.333 511.667M558 511L559 512L558 511M600.667 511.333L601.333 511.667L600.667 511.333M623 511L624 512L623 511M599 512L600 513L599 512M621 512L622 513L621 512z"/>
<path style="fill:#fdd305; stroke:none;" d="M632 512L633 513L632 512z"/>
<path style="fill:#a1a1a5; stroke:none;" d="M525 513L526 514L525 513M561 513L562 514L561 513M596.667 513.333L597.333 513.667L596.667 513.333M620 513L621 514L620 513M631 513L632 514L631 513M550 514L551 515L550 514M563 514L564 515L563 514M594 514L595 515L594 514M618 514L619 515L618 514M526 515L527 516L526 515M540 515L541 516L540 515M551 515L552 516L551 515M565 515L566 516L565 515M591.667 515.333L592.333 515.667L591.667 515.333M617 515L618 516L617 515M628 515L629 516L628 515M552 516L553 517L552 516M567.667 516.333L568.333 516.667L567.667 516.333M588.667 516.333L589.333 516.667L588.667 516.333M615 516L616 517L615 516M627 516L628 517L627 516M527 517L528 518L527 517M541 517L542 518L541 517M570 517L570 518L573 518L570 517M583 517L583 518L586 518L583 517M613 517L614 518L613 517z"/>
<path style="fill:#fdd305; stroke:none;" d="M625 517L626 518L625 517z"/>
<path style="fill:#a1a1a5; stroke:none;" d="M542 518L543 519L542 518M555 518L556 519L555 518M612 518L613 519L612 518M624 518L625 519L624 518M556 519L557 520L556 519M610 519L611 520L610 519z"/>
<path style="fill:#fdd305; stroke:none;" d="M622 519L623 520L622 519z"/>
<path style="fill:#a1a1a5; stroke:none;" d="M529 520L530 521L529 520M558 520L559 521L558 520M608 520L609 521L608 520M621 520L622 521L621 520M559 521L560 522L559 521M606 521L607 522L606 521M619 521L620 522L619 521M561 522L562 523L561 522M603.667 522.333L604.333 522.667L603.667 522.333M618 522L619 523L618 522M531 523L532 524L531 523M547 523L548 524L547 523M562 523L563 524L562 523M601.667 523.333L602.333 523.667L601.667 523.333M616 523L617 524L616 523M532 524L533 525L532 524M548 524L549 525L548 524M564 524L565 525L564 524M598.667 524.333L599.333 524.667L598.667 524.333M614 524L615 525L614 524M533 525L534 526L533 525M550 525L551 526L550 525M566 525L567 526L566 525M595.667 525.333L596.333 525.667L595.667 525.333M612 525L613 526L612 525M552 526L553 527L552 526M568 526L569 527L568 526M590 526L590 527L593 527L590 526M610 526L611 527L610 526M554.667 527.333L555.333 527.667L554.667 527.333M570 527L571 528L570 527M589 527L590 528L589 527M608 527L609 528L608 527M557 528L557 529L561 529L557 528M569 528L570 529L569 528M571 528L572 529L571 528M606 528L607 529L606 528M588 529L589 530L588 529M603.667 529.333L604.333 529.667L603.667 529.333M601 530L602 531L601 530M539 531L540 532L539 531M597.667 531.333L598.333 531.667L597.667 531.333M540 532L541 533L540 532M586 532L587 533L586 532M594 532L595 533L594 532M541 533L542 534L541 533M585 533L586 534L585 533M593 533L594 534L593 533M543 534L544 535L543 534M584 534L585 535L584 534M545 535L546 536L545 535M583 535L584 536L583 535M546.667 536.333L547.333 536.667L546.667 536.333M581 536L582 537L581 536M591 536L592 537L591 536M548.667 537.333L549.333 537.667L548.667 537.333M579 537L580 538L579 537M590 537L591 538L590 537M551 538L552 539L551 538M577 538L578 539L577 538M589 538L590 539L589 538M554.667 539.333L555.333 539.667L554.667 539.333M573 539L573 540L576 540L573 539M588 539L589 540L588 539M558 540L558 541L571 541L558 540M587 540L588 541L587 540M585 541L586 542L585 541M584 542L585 543L584 542M581.667 543.333L582.333 543.667L581.667 543.333M579 544L580 545L579 544M578 545L579 546L578 545M577 553L578 554L577 553M705 554L706 555L705 554M706 555L707 556L706 555M574 557L575 558L574 557M573 558L574 559L573 558M708 558L709 559L708 558M572 559L573 560L572 559M709 559L710 560L709 559M571 560L572 561L571 560M570 561L571 562L570 561M569 562L570 563L569 562M711 562L712 563L711 562M712 563L713 564L712 563M566 566L567 567L566 566M714 566L715 567L714 566M565 567L566 568L565 567M715 567L716 568L715 567M564 568L565 569L564 568M563 569L564 570L563 569M562 570L563 571L562 570M717 570L718 571L717 570M561 571L562 572L561 571M718 571L719 572L718 571M719 573L720 574L719 573M720 574L721 575L720 574M558 575L559 576L558 575M721 575L722 576L721 575M557 576L558 577L557 576M556 577L557 578L556 577M722 577L723 578L722 577M555 578L556 579L555 578M723 578L724 579L723 578M554 579L555 580L554 579M724 579L725 580L724 579M725 581L726 582L725 581M726 582L727 583L726 582M727 583L728 584L727 583M549 585L550 586L549 585M728 585L729 586L728 585M548 586L549 587L548 586M729 586L730 587L729 586M547 587L548 588L547 587M546 588L547 589L546 588M545 589L546 590L545 589M731 589L732 590L731 589M732 590L733 591L732 590M734 593L735 594L734 593M541 594L542 595L541 594M735 594L736 595L735 594M540 595L541 596L540 595M539 596L540 597L539 596M538 597L539 598L538 597M737 597L738 598L737 597M537 598L538 599L537 598M738 598L739 599L738 598M739 600L740 601L739 600M740 601L741 602L740 601M534 602L535 603L534 602M533 603L534 604L533 603M532 604L533 605L532 604M742 604L743 605L742 604M531 605L532 606L531 605M743 605L744 606L743 605M530 606L531 607L530 606M529 607L530 608L529 607M745 608L746 609L745 608M746 609L747 610L746 609M525 612L526 613L525 612M748 612L749 613L748 612M524 613L525 614L524 613M749 613L750 614L749 613M523 614L524 615L523 614M522 615L523 616L522 615M521 616L522 617L521 616M751 616L752 617L751 616M752 617L753 618L752 617M753 619L754 620L753 619M754 620L755 621L754 620M517 621L518 622L517 621M755 621L756 622L755 621M516 622L517 623L516 622M515 623L516 624L515 623M756 623L757 624L756 623M514 624L515 625L514 624M757 624L758 625L757 624M513 625L514 626L513 625M758 625L759 626L758 625M759 627L760 628L759 627M760 628L761 629L760 628M509 630L510 631L509 630M508 631L509 632L508 631M762 631L763 632L762 631M507 632L508 633L507 632M763 632L764 633L763 632M506 633L507 634L506 633M505 634L522 636L570 636L765 636L765 635L590 635L535 635L505 634z"/>
</svg>
