<svg xmlns="http://www.w3.org/2000/svg" width="128" height="128" fill="none" viewBox="0 0 128 128"><path fill="#000" d="M34.1278 103.732C29.8601 104.875 25.4734 102.343 24.3298 98.0748L12.9418 55.574C11.7983 51.3063 14.3309 46.9196 18.5987 45.7761L95.8727 25.0706C100.14 23.927 104.527 26.4597 105.671 30.7274L117.059 73.2282C118.202 77.4959 115.67 81.8826 111.402 83.0261L34.1278 103.732Z"/><path fill="#000" d="M17 94.4012C12.5817 94.4012 9 90.8195 9 86.4012L9 42.4012C9 37.983 12.5817 34.4012 17 34.4012L97 34.4012C101.418 34.4012 105 37.983 105 42.4012L105 86.4012C105 90.8195 101.418 94.4012 97 94.4012L17 94.4012Z"/><path fill="#fff" d="M17 42.4012H65V50.4012H17V42.4012zM17 54.4012H41V62.4012H17V54.4012zM93 39.4012H97V47.4012H93V39.4012zM93 53.4012H97V61.4012H93V53.4012zM93 67.4012H97V75.4012H93V67.4012zM93 81.4012H97V89.4012H93V81.4012z"/></svg>